<?xml version="1.0" encoding="UTF-8" ?>
<svg version="1.1" width="580" height="360" xmlns="http://www.w3.org/2000/svg" shape-rendering="crispEdges">
<rect x="11" y="12" width="19" height="29" fill="#D1A587" />
<rect x="147" y="12" width="19" height="29" fill="#D1A587" />
<rect x="312" y="12" width="20" height="39" fill="#D1A587" />
<rect x="30" y="22" width="1" height="68" fill="#D1A587" />
<rect x="98" y="22" width="30" height="19" fill="#D1A587" />
<rect x="166" y="22" width="1" height="68" fill="#D1A587" />
<rect x="225" y="22" width="19" height="19" fill="#D1A587" />
<rect x="381" y="22" width="29" height="10" fill="#D1A587" />
<rect x="440" y="22" width="9" height="49" fill="#D1A587" />
<rect x="459" y="22" width="20" height="19" fill="#D1A587" />
<rect x="517" y="22" width="30" height="19" fill="#D1A587" />
<rect x="40" y="31" width="20" height="20" fill="#D1A587" />
<rect x="89" y="31" width="9" height="59" fill="#D1A587" />
<rect x="128" y="31" width="10" height="40" fill="#D1A587" />
<rect x="176" y="31" width="20" height="20" fill="#D1A587" />
<rect x="254" y="31" width="20" height="49" fill="#D1A587" />
<rect x="293" y="31" width="19" height="20" fill="#D1A587" />
<rect x="332" y="31" width="10" height="20" fill="#D1A587" />
<rect x="371" y="31" width="10" height="10" fill="#D1A587" />
<rect x="410" y="31" width="10" height="59" fill="#D1A587" />
<rect x="430" y="31" width="10" height="20" fill="#D1A587" />
<rect x="449" y="31" width="10" height="59" fill="#D1A587" />
<rect x="479" y="31" width="10" height="20" fill="#D1A587" />
<rect x="508" y="31" width="9" height="59" fill="#D1A587" />
<rect x="547" y="31" width="10" height="40" fill="#D1A587" />
<rect x="381" y="32" width="10" height="9" fill="#D1A587" />
<rect x="401" y="32" width="9" height="58" fill="#D1A587" />
<rect x="21" y="41" width="9" height="49" fill="#D1A587" />
<rect x="31" y="41" width="9" height="49" fill="#D1A587" />
<rect x="79" y="41" width="10" height="39" fill="#D1A587" />
<rect x="98" y="41" width="10" height="10" fill="#D1A587" />
<rect x="118" y="41" width="10" height="39" fill="#D1A587" />
<rect x="157" y="41" width="9" height="49" fill="#D1A587" />
<rect x="167" y="41" width="9" height="49" fill="#D1A587" />
<rect x="215" y="41" width="20" height="39" fill="#D1A587" />
<rect x="469" y="41" width="10" height="10" fill="#D1A587" />
<rect x="498" y="41" width="10" height="39" fill="#D1A587" />
<rect x="517" y="41" width="10" height="10" fill="#D1A587" />
<rect x="537" y="41" width="10" height="39" fill="#D1A587" />
<rect x="8" y="48" width="13" height="39" fill="#DB6618" />
<rect x="60" y="48" width="6" height="20" fill="#DB6618" />
<rect x="154" y="48" width="3" height="29" fill="#DB6618" />
<rect x="40" y="51" width="10" height="29" fill="#D1A587" />
<rect x="50" y="51" width="10" height="10" fill="#DB6618" />
<rect x="98" y="51" width="1" height="39" fill="#D1A587" />
<rect x="176" y="51" width="10" height="29" fill="#D1A587" />
<rect x="303" y="51" width="19" height="29" fill="#D1A587" />
<rect x="322" y="51" width="17" height="19" fill="#DB6618" />
<rect x="362" y="51" width="39" height="10" fill="#D1A587" />
<rect x="517" y="51" width="1" height="39" fill="#D1A587" />
<rect x="66" y="58" width="1" height="10" fill="#DB6618" />
<rect x="105" y="58" width="13" height="12" fill="#DB6618" />
<rect x="235" y="58" width="16" height="3" fill="#DB6618" />
<rect x="466" y="58" width="20" height="3" fill="#DB6618" />
<rect x="524" y="58" width="13" height="12" fill="#DB6618" />
<rect x="50" y="61" width="10" height="29" fill="#D1A587" />
<rect x="186" y="61" width="10" height="29" fill="#D1A587" />
<rect x="235" y="61" width="9" height="9" fill="#DB6618" />
<rect x="244" y="61" width="10" height="29" fill="#D1A587" />
<rect x="352" y="61" width="20" height="19" fill="#D1A587" />
<rect x="388" y="61" width="3" height="9" fill="#DB6618" />
<rect x="391" y="61" width="10" height="19" fill="#D1A587" />
<rect x="459" y="61" width="10" height="29" fill="#D1A587" />
<rect x="469" y="61" width="17" height="16" fill="#DB6618" />
<rect x="99" y="67" width="6" height="3" fill="#DB6618" />
<rect x="138" y="67" width="7" height="40" fill="#DB6618" />
<rect x="196" y="67" width="7" height="3" fill="#DB6618" />
<rect x="274" y="67" width="7" height="3" fill="#DB6618" />
<rect x="300" y="67" width="3" height="20" fill="#DB6618" />
<rect x="339" y="67" width="10" height="3" fill="#DB6618" />
<rect x="378" y="67" width="10" height="3" fill="#DB6618" />
<rect x="420" y="67" width="7" height="59" fill="#DB6618" />
<rect x="437" y="67" width="3" height="20" fill="#DB6618" />
<rect x="486" y="67" width="10" height="20" fill="#DB6618" />
<rect x="518" y="67" width="6" height="3" fill="#DB6618" />
<rect x="557" y="67" width="7" height="40" fill="#DB6618" />
<rect x="60" y="70" width="10" height="20" fill="#D1A587" />
<rect x="99" y="70" width="19" height="20" fill="#D1A587" />
<rect x="196" y="70" width="10" height="20" fill="#D1A587" />
<rect x="235" y="70" width="9" height="20" fill="#D1A587" />
<rect x="274" y="70" width="9" height="20" fill="#D1A587" />
<rect x="322" y="70" width="20" height="20" fill="#D1A587" />
<rect x="342" y="70" width="7" height="17" fill="#DB6618" />
<rect x="372" y="70" width="19" height="20" fill="#D1A587" />
<rect x="518" y="70" width="19" height="20" fill="#D1A587" />
<rect x="128" y="71" width="10" height="36" fill="#DB6618" />
<rect x="440" y="71" width="9" height="16" fill="#DB6618" />
<rect x="547" y="71" width="10" height="36" fill="#DB6618" />
<rect x="476" y="77" width="10" height="10" fill="#DB6618" />
<rect x="40" y="80" width="7" height="27" fill="#DB6618" />
<rect x="86" y="80" width="3" height="36" fill="#DB6618" />
<rect x="125" y="80" width="3" height="36" fill="#DB6618" />
<rect x="176" y="80" width="10" height="36" fill="#DB6618" />
<rect x="222" y="80" width="3" height="36" fill="#DB6618" />
<rect x="225" y="80" width="10" height="10" fill="#D1A587" />
<rect x="261" y="80" width="3" height="36" fill="#DB6618" />
<rect x="264" y="80" width="10" height="10" fill="#D1A587" />
<rect x="303" y="80" width="9" height="7" fill="#DB6618" />
<rect x="312" y="80" width="10" height="10" fill="#D1A587" />
<rect x="362" y="80" width="10" height="10" fill="#D1A587" />
<rect x="505" y="80" width="3" height="36" fill="#DB6618" />
<rect x="544" y="80" width="3" height="36" fill="#DB6618" />
<rect x="18" y="87" width="3" height="39" fill="#DB6618" />
<rect x="47" y="87" width="3" height="29" fill="#DB6618" />
<rect x="310" y="87" width="2" height="29" fill="#DB6618" />
<rect x="391" y="87" width="10" height="10" fill="#DB6618" />
<rect x="447" y="87" width="2" height="20" fill="#DB6618" />
<rect x="21" y="90" width="19" height="17" fill="#DB6618" />
<rect x="50" y="90" width="7" height="26" fill="#DB6618" />
<rect x="89" y="90" width="17" height="26" fill="#DB6618" />
<rect x="164" y="90" width="12" height="36" fill="#DB6618" />
<rect x="186" y="90" width="7" height="26" fill="#DB6618" />
<rect x="225" y="90" width="17" height="26" fill="#DB6618" />
<rect x="264" y="90" width="17" height="26" fill="#DB6618" />
<rect x="312" y="90" width="17" height="26" fill="#DB6618" />
<rect x="369" y="90" width="22" height="7" fill="#DB6618" />
<rect x="401" y="90" width="19" height="26" fill="#DB6618" />
<rect x="449" y="90" width="17" height="17" fill="#DB6618" />
<rect x="508" y="90" width="17" height="26" fill="#DB6618" />
<rect x="57" y="97" width="10" height="29" fill="#DB6618" />
<rect x="193" y="97" width="10" height="29" fill="#DB6618" />
<rect x="251" y="97" width="10" height="29" fill="#DB6618" />
<rect x="359" y="97" width="20" height="19" fill="#DB6618" />
<rect x="398" y="97" width="3" height="19" fill="#DB6618" />
<rect x="466" y="97" width="10" height="29" fill="#DB6618" />
<rect x="67" y="106" width="9" height="20" fill="#DB6618" />
<rect x="106" y="106" width="19" height="20" fill="#DB6618" />
<rect x="203" y="106" width="10" height="20" fill="#DB6618" />
<rect x="242" y="106" width="9" height="20" fill="#DB6618" />
<rect x="281" y="106" width="9" height="20" fill="#DB6618" />
<rect x="329" y="106" width="20" height="20" fill="#DB6618" />
<rect x="379" y="106" width="19" height="20" fill="#DB6618" />
<rect x="525" y="106" width="19" height="20" fill="#DB6618" />
<rect x="21" y="107" width="16" height="19" fill="#DB6618" />
<rect x="128" y="107" width="7" height="9" fill="#DB6618" />
<rect x="456" y="107" width="10" height="19" fill="#DB6618" />
<rect x="547" y="107" width="7" height="9" fill="#DB6618" />
<rect x="96" y="116" width="10" height="10" fill="#DB6618" />
<rect x="176" y="116" width="7" height="10" fill="#DB6618" />
<rect x="232" y="116" width="10" height="10" fill="#DB6618" />
<rect x="271" y="116" width="10" height="10" fill="#DB6618" />
<rect x="319" y="116" width="10" height="10" fill="#DB6618" />
<rect x="369" y="116" width="10" height="10" fill="#DB6618" />
<rect x="408" y="116" width="12" height="10" fill="#DB6618" />
<rect x="515" y="116" width="10" height="10" fill="#DB6618" />
<rect x="14" y="129" width="19" height="29" fill="#D1A587" />
<rect x="150" y="129" width="19" height="29" fill="#D1A587" />
<rect x="315" y="129" width="20" height="39" fill="#D1A587" />
<rect x="33" y="139" width="1" height="68" fill="#D1A587" />
<rect x="101" y="139" width="30" height="19" fill="#D1A587" />
<rect x="169" y="139" width="1" height="68" fill="#D1A587" />
<rect x="228" y="139" width="19" height="19" fill="#D1A587" />
<rect x="384" y="139" width="29" height="10" fill="#D1A587" />
<rect x="443" y="139" width="9" height="49" fill="#D1A587" />
<rect x="462" y="139" width="20" height="19" fill="#D1A587" />
<rect x="520" y="139" width="30" height="19" fill="#D1A587" />
<rect x="43" y="148" width="20" height="20" fill="#D1A587" />
<rect x="92" y="148" width="9" height="59" fill="#D1A587" />
<rect x="131" y="148" width="10" height="40" fill="#D1A587" />
<rect x="179" y="148" width="20" height="20" fill="#D1A587" />
<rect x="257" y="148" width="20" height="49" fill="#D1A587" />
<rect x="296" y="148" width="19" height="20" fill="#D1A587" />
<rect x="335" y="148" width="10" height="20" fill="#D1A587" />
<rect x="374" y="148" width="10" height="10" fill="#D1A587" />
<rect x="413" y="148" width="10" height="59" fill="#D1A587" />
<rect x="433" y="148" width="10" height="20" fill="#D1A587" />
<rect x="452" y="148" width="10" height="59" fill="#D1A587" />
<rect x="482" y="148" width="10" height="20" fill="#D1A587" />
<rect x="511" y="148" width="9" height="59" fill="#D1A587" />
<rect x="550" y="148" width="10" height="40" fill="#D1A587" />
<rect x="384" y="149" width="10" height="9" fill="#D1A587" />
<rect x="404" y="149" width="9" height="58" fill="#D1A587" />
<rect x="11" y="153" width="3" height="39" fill="#DB6618" />
<rect x="63" y="153" width="6" height="20" fill="#DB6618" />
<rect x="170" y="153" width="6" height="5" fill="#DB6618" />
<rect x="14" y="158" width="10" height="34" fill="#DB6618" />
<rect x="24" y="158" width="9" height="49" fill="#D1A587" />
<rect x="34" y="158" width="9" height="49" fill="#D1A587" />
<rect x="82" y="158" width="10" height="39" fill="#D1A587" />
<rect x="101" y="158" width="10" height="10" fill="#D1A587" />
<rect x="121" y="158" width="10" height="39" fill="#D1A587" />
<rect x="157" y="158" width="3" height="24" fill="#DB6618" />
<rect x="160" y="158" width="9" height="49" fill="#D1A587" />
<rect x="170" y="158" width="9" height="49" fill="#D1A587" />
<rect x="218" y="158" width="20" height="39" fill="#D1A587" />
<rect x="472" y="158" width="10" height="10" fill="#D1A587" />
<rect x="501" y="158" width="10" height="39" fill="#D1A587" />
<rect x="520" y="158" width="10" height="10" fill="#D1A587" />
<rect x="540" y="158" width="10" height="39" fill="#D1A587" />
<rect x="69" y="163" width="1" height="10" fill="#DB6618" />
<rect x="111" y="163" width="10" height="19" fill="#DB6618" />
<rect x="238" y="163" width="16" height="15" fill="#DB6618" />
<rect x="391" y="163" width="13" height="5" fill="#DB6618" />
<rect x="469" y="163" width="3" height="15" fill="#DB6618" />
<rect x="530" y="163" width="10" height="19" fill="#DB6618" />
<rect x="43" y="168" width="10" height="29" fill="#D1A587" />
<rect x="53" y="168" width="10" height="5" fill="#DB6618" />
<rect x="101" y="168" width="1" height="39" fill="#D1A587" />
<rect x="108" y="168" width="3" height="19" fill="#DB6618" />
<rect x="179" y="168" width="10" height="29" fill="#D1A587" />
<rect x="306" y="168" width="19" height="29" fill="#D1A587" />
<rect x="325" y="168" width="17" height="19" fill="#DB6618" />
<rect x="365" y="168" width="39" height="10" fill="#D1A587" />
<rect x="472" y="168" width="17" height="14" fill="#DB6618" />
<rect x="520" y="168" width="1" height="39" fill="#D1A587" />
<rect x="527" y="168" width="3" height="19" fill="#DB6618" />
<rect x="102" y="172" width="6" height="15" fill="#DB6618" />
<rect x="141" y="172" width="7" height="40" fill="#DB6618" />
<rect x="189" y="172" width="17" height="6" fill="#DB6618" />
<rect x="277" y="172" width="7" height="15" fill="#DB6618" />
<rect x="303" y="172" width="3" height="20" fill="#DB6618" />
<rect x="342" y="172" width="10" height="15" fill="#DB6618" />
<rect x="423" y="172" width="7" height="59" fill="#DB6618" />
<rect x="440" y="172" width="3" height="20" fill="#DB6618" />
<rect x="462" y="172" width="7" height="6" fill="#DB6618" />
<rect x="489" y="172" width="10" height="20" fill="#DB6618" />
<rect x="521" y="172" width="6" height="15" fill="#DB6618" />
<rect x="560" y="172" width="7" height="40" fill="#DB6618" />
<rect x="53" y="173" width="7" height="5" fill="#DB6618" />
<rect x="53" y="178" width="10" height="29" fill="#D1A587" />
<rect x="189" y="178" width="10" height="29" fill="#D1A587" />
<rect x="199" y="178" width="7" height="9" fill="#DB6618" />
<rect x="238" y="178" width="9" height="4" fill="#DB6618" />
<rect x="247" y="178" width="10" height="29" fill="#D1A587" />
<rect x="355" y="178" width="20" height="19" fill="#D1A587" />
<rect x="381" y="178" width="13" height="4" fill="#DB6618" />
<rect x="394" y="178" width="10" height="19" fill="#D1A587" />
<rect x="462" y="178" width="10" height="29" fill="#D1A587" />
<rect x="111" y="182" width="7" height="5" fill="#DB6618" />
<rect x="238" y="182" width="7" height="5" fill="#DB6618" />
<rect x="479" y="182" width="10" height="10" fill="#DB6618" />
<rect x="530" y="182" width="7" height="5" fill="#DB6618" />
<rect x="63" y="187" width="10" height="20" fill="#D1A587" />
<rect x="102" y="187" width="19" height="20" fill="#D1A587" />
<rect x="199" y="187" width="10" height="20" fill="#D1A587" />
<rect x="238" y="187" width="9" height="20" fill="#D1A587" />
<rect x="277" y="187" width="9" height="20" fill="#D1A587" />
<rect x="325" y="187" width="20" height="20" fill="#D1A587" />
<rect x="345" y="187" width="7" height="5" fill="#DB6618" />
<rect x="375" y="187" width="19" height="20" fill="#D1A587" />
<rect x="521" y="187" width="19" height="20" fill="#D1A587" />
<rect x="131" y="188" width="10" height="24" fill="#DB6618" />
<rect x="443" y="188" width="9" height="4" fill="#DB6618" />
<rect x="550" y="188" width="10" height="24" fill="#DB6618" />
<rect x="21" y="192" width="3" height="39" fill="#DB6618" />
<rect x="450" y="192" width="2" height="20" fill="#DB6618" />
<rect x="43" y="197" width="10" height="15" fill="#DB6618" />
<rect x="89" y="197" width="3" height="24" fill="#DB6618" />
<rect x="128" y="197" width="3" height="24" fill="#DB6618" />
<rect x="179" y="197" width="10" height="24" fill="#DB6618" />
<rect x="225" y="197" width="3" height="24" fill="#DB6618" />
<rect x="228" y="197" width="10" height="10" fill="#D1A587" />
<rect x="264" y="197" width="3" height="24" fill="#DB6618" />
<rect x="267" y="197" width="10" height="10" fill="#D1A587" />
<rect x="313" y="197" width="2" height="24" fill="#DB6618" />
<rect x="315" y="197" width="10" height="10" fill="#D1A587" />
<rect x="365" y="197" width="10" height="10" fill="#D1A587" />
<rect x="394" y="197" width="10" height="5" fill="#DB6618" />
<rect x="508" y="197" width="3" height="24" fill="#DB6618" />
<rect x="547" y="197" width="3" height="24" fill="#DB6618" />
<rect x="257" y="202" width="7" height="29" fill="#DB6618" />
<rect x="362" y="202" width="3" height="19" fill="#DB6618" />
<rect x="401" y="202" width="3" height="19" fill="#DB6618" />
<rect x="472" y="202" width="7" height="29" fill="#DB6618" />
<rect x="24" y="207" width="19" height="5" fill="#DB6618" />
<rect x="53" y="207" width="17" height="14" fill="#DB6618" />
<rect x="92" y="207" width="17" height="14" fill="#DB6618" />
<rect x="167" y="207" width="12" height="24" fill="#DB6618" />
<rect x="189" y="207" width="17" height="14" fill="#DB6618" />
<rect x="228" y="207" width="17" height="14" fill="#DB6618" />
<rect x="254" y="207" width="3" height="24" fill="#DB6618" />
<rect x="267" y="207" width="17" height="14" fill="#DB6618" />
<rect x="315" y="207" width="17" height="14" fill="#DB6618" />
<rect x="365" y="207" width="17" height="14" fill="#DB6618" />
<rect x="404" y="207" width="19" height="14" fill="#DB6618" />
<rect x="452" y="207" width="20" height="5" fill="#DB6618" />
<rect x="511" y="207" width="17" height="14" fill="#DB6618" />
<rect x="70" y="211" width="9" height="20" fill="#DB6618" />
<rect x="109" y="211" width="19" height="20" fill="#DB6618" />
<rect x="206" y="211" width="10" height="20" fill="#DB6618" />
<rect x="245" y="211" width="9" height="20" fill="#DB6618" />
<rect x="284" y="211" width="9" height="20" fill="#DB6618" />
<rect x="332" y="211" width="20" height="20" fill="#DB6618" />
<rect x="382" y="211" width="19" height="20" fill="#DB6618" />
<rect x="528" y="211" width="19" height="20" fill="#DB6618" />
<rect x="24" y="212" width="16" height="19" fill="#DB6618" />
<rect x="50" y="212" width="3" height="9" fill="#DB6618" />
<rect x="131" y="212" width="7" height="9" fill="#DB6618" />
<rect x="459" y="212" width="13" height="19" fill="#DB6618" />
<rect x="550" y="212" width="7" height="9" fill="#DB6618" />
<rect x="60" y="221" width="10" height="10" fill="#DB6618" />
<rect x="99" y="221" width="10" height="10" fill="#DB6618" />
<rect x="179" y="221" width="7" height="10" fill="#DB6618" />
<rect x="196" y="221" width="10" height="10" fill="#DB6618" />
<rect x="235" y="221" width="10" height="10" fill="#DB6618" />
<rect x="274" y="221" width="10" height="10" fill="#DB6618" />
<rect x="322" y="221" width="10" height="10" fill="#DB6618" />
<rect x="372" y="221" width="10" height="10" fill="#DB6618" />
<rect x="411" y="221" width="12" height="10" fill="#DB6618" />
<rect x="518" y="221" width="10" height="10" fill="#DB6618" />
<rect x="17" y="231" width="19" height="29" fill="#D1A587" />
<rect x="153" y="231" width="19" height="29" fill="#D1A587" />
<rect x="318" y="231" width="20" height="39" fill="#D1A587" />
<rect x="36" y="241" width="1" height="68" fill="#D1A587" />
<rect x="104" y="241" width="30" height="19" fill="#D1A587" />
<rect x="172" y="241" width="1" height="68" fill="#D1A587" />
<rect x="231" y="241" width="19" height="19" fill="#D1A587" />
<rect x="387" y="241" width="29" height="10" fill="#D1A587" />
<rect x="446" y="241" width="9" height="49" fill="#D1A587" />
<rect x="465" y="241" width="20" height="19" fill="#D1A587" />
<rect x="523" y="241" width="30" height="19" fill="#D1A587" />
<rect x="46" y="250" width="20" height="20" fill="#D1A587" />
<rect x="95" y="250" width="9" height="59" fill="#D1A587" />
<rect x="134" y="250" width="10" height="40" fill="#D1A587" />
<rect x="182" y="250" width="20" height="20" fill="#D1A587" />
<rect x="260" y="250" width="20" height="49" fill="#D1A587" />
<rect x="299" y="250" width="19" height="20" fill="#D1A587" />
<rect x="338" y="250" width="10" height="20" fill="#D1A587" />
<rect x="377" y="250" width="10" height="10" fill="#D1A587" />
<rect x="416" y="250" width="10" height="59" fill="#D1A587" />
<rect x="436" y="250" width="10" height="20" fill="#D1A587" />
<rect x="455" y="250" width="10" height="59" fill="#D1A587" />
<rect x="485" y="250" width="10" height="20" fill="#D1A587" />
<rect x="514" y="250" width="9" height="59" fill="#D1A587" />
<rect x="553" y="250" width="10" height="40" fill="#D1A587" />
<rect x="387" y="251" width="10" height="9" fill="#D1A587" />
<rect x="407" y="251" width="9" height="58" fill="#D1A587" />
<rect x="27" y="260" width="9" height="49" fill="#D1A587" />
<rect x="37" y="260" width="9" height="49" fill="#D1A587" />
<rect x="85" y="260" width="10" height="39" fill="#D1A587" />
<rect x="104" y="260" width="10" height="10" fill="#D1A587" />
<rect x="124" y="260" width="10" height="39" fill="#D1A587" />
<rect x="163" y="260" width="9" height="49" fill="#D1A587" />
<rect x="173" y="260" width="9" height="49" fill="#D1A587" />
<rect x="221" y="260" width="20" height="39" fill="#D1A587" />
<rect x="475" y="260" width="10" height="10" fill="#D1A587" />
<rect x="504" y="260" width="10" height="39" fill="#D1A587" />
<rect x="523" y="260" width="10" height="10" fill="#D1A587" />
<rect x="543" y="260" width="10" height="39" fill="#D1A587" />
<rect x="14" y="267" width="13" height="39" fill="#DB6618" />
<rect x="66" y="267" width="6" height="20" fill="#DB6618" />
<rect x="160" y="267" width="3" height="29" fill="#DB6618" />
<rect x="46" y="270" width="10" height="29" fill="#D1A587" />
<rect x="56" y="270" width="10" height="10" fill="#DB6618" />
<rect x="104" y="270" width="1" height="39" fill="#D1A587" />
<rect x="182" y="270" width="10" height="29" fill="#D1A587" />
<rect x="309" y="270" width="19" height="29" fill="#D1A587" />
<rect x="328" y="270" width="17" height="19" fill="#DB6618" />
<rect x="368" y="270" width="39" height="10" fill="#D1A587" />
<rect x="523" y="270" width="1" height="39" fill="#D1A587" />
<rect x="72" y="277" width="1" height="10" fill="#DB6618" />
<rect x="111" y="277" width="13" height="12" fill="#DB6618" />
<rect x="241" y="277" width="16" height="3" fill="#DB6618" />
<rect x="472" y="277" width="20" height="3" fill="#DB6618" />
<rect x="530" y="277" width="13" height="12" fill="#DB6618" />
<rect x="56" y="280" width="10" height="29" fill="#D1A587" />
<rect x="192" y="280" width="10" height="29" fill="#D1A587" />
<rect x="241" y="280" width="9" height="9" fill="#DB6618" />
<rect x="250" y="280" width="10" height="29" fill="#D1A587" />
<rect x="358" y="280" width="20" height="19" fill="#D1A587" />
<rect x="394" y="280" width="3" height="9" fill="#DB6618" />
<rect x="397" y="280" width="10" height="19" fill="#D1A587" />
<rect x="465" y="280" width="10" height="29" fill="#D1A587" />
<rect x="475" y="280" width="17" height="16" fill="#DB6618" />
<rect x="105" y="286" width="6" height="3" fill="#DB6618" />
<rect x="144" y="286" width="7" height="40" fill="#DB6618" />
<rect x="202" y="286" width="7" height="3" fill="#DB6618" />
<rect x="280" y="286" width="7" height="3" fill="#DB6618" />
<rect x="306" y="286" width="3" height="20" fill="#DB6618" />
<rect x="345" y="286" width="10" height="3" fill="#DB6618" />
<rect x="384" y="286" width="10" height="3" fill="#DB6618" />
<rect x="426" y="286" width="7" height="59" fill="#DB6618" />
<rect x="443" y="286" width="3" height="20" fill="#DB6618" />
<rect x="492" y="286" width="10" height="20" fill="#DB6618" />
<rect x="524" y="286" width="6" height="3" fill="#DB6618" />
<rect x="563" y="286" width="7" height="40" fill="#DB6618" />
<rect x="66" y="289" width="10" height="20" fill="#D1A587" />
<rect x="105" y="289" width="19" height="20" fill="#D1A587" />
<rect x="202" y="289" width="10" height="20" fill="#D1A587" />
<rect x="241" y="289" width="9" height="20" fill="#D1A587" />
<rect x="280" y="289" width="9" height="20" fill="#D1A587" />
<rect x="328" y="289" width="20" height="20" fill="#D1A587" />
<rect x="348" y="289" width="7" height="17" fill="#DB6618" />
<rect x="378" y="289" width="19" height="20" fill="#D1A587" />
<rect x="524" y="289" width="19" height="20" fill="#D1A587" />
<rect x="134" y="290" width="10" height="36" fill="#DB6618" />
<rect x="446" y="290" width="9" height="16" fill="#DB6618" />
<rect x="553" y="290" width="10" height="36" fill="#DB6618" />
<rect x="482" y="296" width="10" height="10" fill="#DB6618" />
<rect x="46" y="299" width="7" height="27" fill="#DB6618" />
<rect x="92" y="299" width="3" height="36" fill="#DB6618" />
<rect x="131" y="299" width="3" height="36" fill="#DB6618" />
<rect x="182" y="299" width="10" height="36" fill="#DB6618" />
<rect x="228" y="299" width="3" height="36" fill="#DB6618" />
<rect x="231" y="299" width="10" height="10" fill="#D1A587" />
<rect x="267" y="299" width="3" height="36" fill="#DB6618" />
<rect x="270" y="299" width="10" height="10" fill="#D1A587" />
<rect x="309" y="299" width="9" height="7" fill="#DB6618" />
<rect x="318" y="299" width="10" height="10" fill="#D1A587" />
<rect x="368" y="299" width="10" height="10" fill="#D1A587" />
<rect x="511" y="299" width="3" height="36" fill="#DB6618" />
<rect x="550" y="299" width="3" height="36" fill="#DB6618" />
<rect x="24" y="306" width="3" height="39" fill="#DB6618" />
<rect x="53" y="306" width="3" height="29" fill="#DB6618" />
<rect x="316" y="306" width="2" height="29" fill="#DB6618" />
<rect x="397" y="306" width="10" height="10" fill="#DB6618" />
<rect x="453" y="306" width="2" height="20" fill="#DB6618" />
<rect x="27" y="309" width="19" height="17" fill="#DB6618" />
<rect x="56" y="309" width="7" height="26" fill="#DB6618" />
<rect x="95" y="309" width="17" height="26" fill="#DB6618" />
<rect x="170" y="309" width="12" height="36" fill="#DB6618" />
<rect x="192" y="309" width="7" height="26" fill="#DB6618" />
<rect x="231" y="309" width="17" height="26" fill="#DB6618" />
<rect x="270" y="309" width="17" height="26" fill="#DB6618" />
<rect x="318" y="309" width="17" height="26" fill="#DB6618" />
<rect x="375" y="309" width="22" height="7" fill="#DB6618" />
<rect x="407" y="309" width="19" height="26" fill="#DB6618" />
<rect x="455" y="309" width="17" height="17" fill="#DB6618" />
<rect x="514" y="309" width="17" height="26" fill="#DB6618" />
<rect x="63" y="316" width="10" height="29" fill="#DB6618" />
<rect x="199" y="316" width="10" height="29" fill="#DB6618" />
<rect x="257" y="316" width="10" height="29" fill="#DB6618" />
<rect x="365" y="316" width="20" height="19" fill="#DB6618" />
<rect x="404" y="316" width="3" height="19" fill="#DB6618" />
<rect x="472" y="316" width="10" height="29" fill="#DB6618" />
<rect x="73" y="325" width="9" height="20" fill="#DB6618" />
<rect x="112" y="325" width="19" height="20" fill="#DB6618" />
<rect x="209" y="325" width="10" height="20" fill="#DB6618" />
<rect x="248" y="325" width="9" height="20" fill="#DB6618" />
<rect x="287" y="325" width="9" height="20" fill="#DB6618" />
<rect x="335" y="325" width="20" height="20" fill="#DB6618" />
<rect x="385" y="325" width="19" height="20" fill="#DB6618" />
<rect x="531" y="325" width="19" height="20" fill="#DB6618" />
<rect x="27" y="326" width="16" height="19" fill="#DB6618" />
<rect x="134" y="326" width="7" height="9" fill="#DB6618" />
<rect x="462" y="326" width="10" height="19" fill="#DB6618" />
<rect x="553" y="326" width="7" height="9" fill="#DB6618" />
<rect x="102" y="335" width="10" height="10" fill="#DB6618" />
<rect x="182" y="335" width="7" height="10" fill="#DB6618" />
<rect x="238" y="335" width="10" height="10" fill="#DB6618" />
<rect x="277" y="335" width="10" height="10" fill="#DB6618" />
<rect x="325" y="335" width="10" height="10" fill="#DB6618" />
<rect x="375" y="335" width="10" height="10" fill="#DB6618" />
<rect x="414" y="335" width="12" height="10" fill="#DB6618" />
<rect x="521" y="335" width="10" height="10" fill="#DB6618" />
</svg>