<svg width="160" height="93" viewBox="0 0 160 93" fill="none" xmlns="http://www.w3.org/2000/svg">
<path d="M72.1519 0.637747C58.5519 2.37108 42.9519 13.1711 34.5519 26.6377C31.6186 31.4377 30.6852 32.1044 25.6186 32.3711C19.0852 32.7711 6.95191 37.0377 2.81857 40.5044C-1.04809 43.7044 -0.91476 49.7044 3.08524 52.7711C6.41857 55.3044 18.9519 59.7044 27.4852 61.4378C31.2186 62.1044 33.3519 63.5711 36.1519 67.8378C55.6186 96.1044 93.0852 100.771 116.685 77.8378C124.419 70.3711 124.552 70.2378 135.619 68.9044C153.752 66.5044 162.819 59.9711 159.219 51.9711C156.952 47.0377 148.019 43.0377 138.685 42.9044C131.485 42.7711 130.819 42.5044 130.152 39.3044C125.885 19.8377 109.352 3.83775 90.8186 1.30441C87.6186 0.771081 83.7519 0.237747 82.2852 0.104414C80.8186 -0.162253 76.2852 0.104414 72.1519 0.637747ZM95.4852 9.43775C103.752 12.2377 115.885 23.4377 119.885 31.9711C121.619 35.8377 122.952 41.1711 122.952 44.6377C122.952 51.8378 120.819 60.1044 118.552 61.5711C116.285 62.9044 90.6852 62.1044 68.4186 59.9711C37.2186 56.7711 37.6186 57.0378 37.6186 44.9044C37.6186 28.3711 48.6852 13.4377 63.8852 9.30441C72.9519 6.77108 87.8852 6.90441 95.4852 9.43775ZM30.9519 45.9711C30.9519 53.4378 30.6852 53.9711 28.0186 53.9711C24.4186 53.9711 13.7519 50.7711 9.61857 48.6377C8.15191 47.8377 7.21857 46.5044 7.75191 45.7044C9.21857 43.3044 22.1519 37.9711 26.6852 37.9711H30.9519V45.9711ZM147.752 51.9711C150.419 53.0378 152.285 54.6378 152.019 55.5711C151.085 58.3711 144.552 60.9044 136.019 61.5711L128.152 62.3711L128.952 58.5044C130.952 49.8378 130.819 49.9711 137.085 49.9711C140.419 49.9711 145.219 50.9044 147.752 51.9711ZM82.9519 68.1044C98.6852 69.3044 111.885 70.5044 112.285 70.9044C113.485 71.9711 106.552 76.9044 98.9519 80.5044C88.2852 85.4378 73.4852 85.3044 62.2852 80.2378C54.8186 76.7711 44.2852 68.2378 44.2852 65.5711C44.2852 64.9044 46.5519 64.7711 49.3519 65.1711C52.0186 65.5711 67.2186 66.9044 82.9519 68.1044Z" fill="#F5E1CD"/>
</svg>
