<svg width="340" height="138" viewBox="0 0 340 138" fill="none" xmlns="http://www.w3.org/2000/svg">
<path d="M194 7.14266C187.466 11.0093 170.666 21.0093 156.666 29.276C142.8 37.4093 127.333 46.2093 122.4 48.7427C113.066 53.4093 110.933 55.4093 112.933 57.4093C115.733 60.2093 120.133 57.9427 187.733 19.0093C190.8 17.1427 193.333 16.2093 193.333 16.876C193.333 19.4093 180.8 33.5427 174 38.6093C160.8 48.3427 166.4 51.5427 188.4 46.7427C220.266 39.8093 303.466 25.676 304.8 26.876C305.466 27.5427 293.466 31.5427 271.333 37.9427C264.8 39.8093 244.933 44.3427 227.333 47.8093C186.533 56.076 172.8 61.1427 175.066 67.0093C175.733 68.7427 177.733 69.276 183.6 69.276C195.733 69.4093 226.666 74.076 226.666 75.8093C226.666 76.3427 203.733 77.5427 175.733 78.476C124 80.076 118.533 80.7427 117.6 85.4093C116.933 88.7427 119.333 89.0093 137.333 87.8093C146.533 87.1427 170.266 86.076 190.133 85.276C225.333 83.9427 246.933 81.5427 249.866 78.6093C250.8 77.676 250.8 76.6093 249.866 74.876C248.8 73.276 242 71.276 225.466 67.676C212.8 65.0093 202.133 62.476 201.733 62.076C200.933 61.276 200.666 61.276 233.733 54.476C281.866 44.7427 332.133 28.3427 338.666 20.6093C341.466 17.276 339.2 14.6093 333.466 14.6093C328.133 14.6093 192.4 36.876 190.4 38.076C187.6 39.9427 190 35.676 196.4 27.8093C209.333 12.076 213.333 6.20932 213.333 3.14266C213.333 -2.05735 207.333 -0.857345 194 7.14266Z" fill="#F5E1CD"/>
<path d="M76 55.9427C71.2 58.876 65.3333 62.3427 63.0667 63.5427L58.8 65.676L53.2 59.4094C49.3333 55.0094 46.8 53.276 44.8 53.5427C42.2667 53.9427 42 55.0094 41.3333 65.9427L40.6667 77.9427L22.4 86.076C2.93333 94.7427 0 96.476 0 99.4094C0 103.009 6 105.009 20 106.076C42.1333 107.543 40.5333 106.343 41.3333 122.743C42 135.943 42.1333 136.609 45.0667 137.009C49.2 137.676 51.0667 135.809 58.9333 124.209C66.1333 113.543 66 113.543 76.2667 118.743C82.8 122.076 87.4667 121.943 89.3333 118.609C91.0667 115.409 91.0667 115.409 82.4 103.809C78.9333 98.876 76 93.9427 76 92.876C76 91.676 79.7333 82.7427 84.1333 73.0094C92.5333 54.876 93.0667 51.8094 87.2 50.876C85.7333 50.7427 80.8 53.0094 76 55.9427ZM74 74.2094L70.5333 81.9427L67.8667 78.7427C66.5333 77.0094 65.3333 75.0094 65.3333 74.076C65.3333 72.6094 76.1333 65.0094 77.0667 65.9427C77.3333 66.2094 76 69.9427 74 74.2094ZM50.6667 70.7427C50.6667 71.4094 50.1333 71.9427 49.3333 71.9427C48.6667 71.9427 48 71.0094 48 69.8094C48 68.7427 48.6667 68.2094 49.3333 68.6094C50.1333 69.0094 50.6667 69.9427 50.6667 70.7427ZM61.3333 86.6094C64.8 93.4094 65.0667 95.0094 63.7333 97.9427C62.1333 101.676 60.4 101.943 53.0667 99.8094C48 98.476 48 98.476 48 91.1427C48 84.3427 48.2667 83.676 52.4 81.276C54.6667 79.8094 56.8 78.6094 56.9333 78.6094C57.2 78.6094 59.0667 82.2094 61.3333 86.6094ZM40.5333 91.276C42.5333 96.7427 38.2667 99.1427 29.3333 97.5427L23.3333 96.476L30 92.876C37.7333 88.876 39.4667 88.6094 40.5333 91.276ZM55.7333 110.476C57.3333 111.409 57.2 112.209 55.4667 115.409C54.4 117.543 52.2667 120.743 50.8 122.609L48 125.943V117.543C48 109.809 48.2667 109.276 51.0667 109.276C52.6667 109.276 54.8 109.809 55.7333 110.476Z" fill="#F5E1CD"/>
</svg>
