<svg width="101" height="88" viewBox="0 0 101 88" fill="none" xmlns="http://www.w3.org/2000/svg">
<path d="M47.647 4.64179C45.3804 7.30845 42.1804 11.9751 40.7137 15.1751L37.9137 20.7751L22.847 21.4418C6.31368 22.2418 1.64702 23.9751 0.180349 29.8418C-0.886318 34.1084 2.71368 39.7084 12.7137 49.5751L20.5803 57.4418L16.7137 70.6418C10.7137 90.6418 12.1803 91.5751 31.7804 80.7751L44.447 73.7084L52.447 77.4418C64.5804 83.1751 68.1804 83.4418 72.1804 79.4418C75.247 76.3751 75.647 74.9084 75.647 66.7751V57.4418L84.047 52.1084C96.7137 43.7084 100.98 39.3084 100.98 34.6418C100.98 28.7751 96.447 26.3751 83.247 25.0418C77.247 24.5084 71.3804 23.7084 70.1804 23.1751C69.1137 22.7751 67.1137 18.7751 65.7804 14.5085C61.247 -0.691547 55.247 -3.89155 47.647 4.64179ZM54.3137 19.1751C54.3137 20.2418 53.3804 21.1751 52.3137 21.1751C51.1137 21.1751 50.7137 20.3751 51.1137 19.1751C51.647 18.1085 52.447 17.1751 53.1137 17.1751C53.7804 17.1751 54.3137 18.1085 54.3137 19.1751ZM29.7804 35.0418C30.7137 37.5751 28.047 42.5084 25.7804 42.5084C24.847 42.5084 22.447 40.9084 20.447 38.9084C17.7803 36.2418 17.247 35.1751 18.5803 34.2418C21.5137 32.5084 28.9804 33.0418 29.7804 35.0418ZM56.7137 35.5751C58.447 36.7751 60.9804 44.2418 60.9804 48.5084C60.9804 50.3751 58.847 52.2418 54.047 54.7751L47.1137 58.5084L42.047 55.1751C39.247 53.3084 36.9804 50.9084 36.9804 49.8418C36.9804 48.6418 38.447 44.7751 40.3137 41.1751C43.5137 34.7751 43.9137 34.5084 49.3804 34.5084C52.447 34.5084 55.7804 35.0418 56.7137 35.5751ZM81.3804 37.0418C83.647 37.4418 82.047 39.9751 78.1804 41.9751C74.7137 43.7084 73.7804 43.8418 72.847 42.2418C69.647 37.4418 72.7137 35.5751 81.3804 37.0418ZM63.647 65.7084C63.647 66.1084 63.1137 66.7751 62.3137 67.1751C61.647 67.5751 60.9804 67.3084 60.9804 66.6418C60.9804 65.8418 61.647 65.1751 62.3137 65.1751C63.1137 65.1751 63.647 65.4418 63.647 65.7084Z" fill="#F5E1CD"/>
</svg>
