<svg width="300" height="288" viewBox="0 0 300 288" fill="none" xmlns="http://www.w3.org/2000/svg">
<path d="M154.685 4.43558C153.618 10.0356 154.285 36.7022 155.618 37.9022C156.152 38.4356 157.085 38.4356 157.885 37.9022C159.485 36.9689 160.018 5.76891 158.552 2.03558C157.218 -1.43109 155.485 -0.364423 154.685 4.43558Z" fill="#F5E1CD"/>
<path d="M229.885 27.5028C224.419 33.2361 214.019 49.6361 214.019 52.1695C214.019 58.0361 219.485 52.1695 229.485 35.5028C235.085 26.4361 235.219 21.6361 229.885 27.5028Z" fill="#F5E1CD"/>
<path d="M79.3521 49.5025C79.3521 52.4358 105.485 77.2358 108.552 77.2358C112.819 77.2358 110.819 74.4358 96.2854 60.1692C84.6854 48.8358 79.3521 45.5025 79.3521 49.5025Z" fill="#F5E1CD"/>
<path d="M168.419 74.5693C159.352 84.1693 146.686 99.7692 140.552 109.236L138.419 112.436L112.552 108.169C81.0856 102.969 64.0189 101.636 59.3522 104.169C55.2189 106.303 54.2856 112.169 57.3522 116.703C60.0189 120.836 76.5522 133.903 92.0189 144.303C98.5522 148.703 104.552 152.703 105.219 153.369C105.886 153.903 102.552 158.703 97.7522 164.169C79.7522 184.436 67.3522 202.703 67.3522 208.969C67.3522 210.303 68.0189 212.036 68.9522 212.969C72.8189 216.836 81.7522 214.169 116.152 199.236C128.686 193.769 139.886 189.236 141.219 189.236C142.419 189.236 146.286 192.303 149.752 196.169C169.486 217.769 190.152 235.369 197.486 236.703C207.752 238.569 208.152 233.503 200.552 203.636C194.286 179.369 194.019 180.969 206.552 176.569C216.019 173.236 232.286 164.969 239.086 160.036C243.352 156.836 244.686 154.969 244.686 152.036C244.686 146.703 241.352 144.836 221.752 139.236C191.219 130.303 189.086 129.503 187.486 125.503C186.552 123.236 186.152 112.303 186.286 94.8359C186.686 69.3692 186.552 67.6359 184.152 65.7693C182.686 64.7026 180.819 63.9026 180.152 63.9026C179.352 63.9026 174.019 68.7026 168.419 74.5693ZM179.352 102.436V128.969L182.819 133.103C186.286 137.369 193.086 139.769 223.219 148.169C229.486 149.903 234.686 151.903 234.952 152.703C235.219 153.503 228.419 157.636 219.752 161.769C211.086 166.036 200.686 171.103 196.686 172.969C186.819 177.903 186.419 180.169 191.619 199.769C197.886 223.769 198.552 226.569 197.619 227.369C196.019 228.969 189.752 223.769 169.886 204.436C159.086 194.036 148.686 184.436 146.819 183.103C141.752 179.903 137.619 180.969 110.419 192.436C86.1522 202.569 79.3522 204.969 79.3522 203.236C79.3522 200.969 90.0189 186.569 102.152 172.569C110.819 162.569 115.352 156.303 115.352 154.169C115.352 150.303 111.752 146.969 93.3522 134.169C85.3522 128.436 75.7522 121.236 72.0189 117.903L65.3522 112.036L72.4189 111.903C76.2856 111.903 92.4189 114.036 108.152 116.703C123.886 119.369 137.619 121.103 138.686 120.703C139.619 120.436 148.819 110.169 158.952 98.0359C169.086 85.7693 177.752 75.9026 178.286 75.9026C178.952 75.9026 179.352 87.9026 179.352 102.436Z" fill="#F5E1CD"/>
<path d="M250.019 90.7025C230.952 101.369 228.419 103.369 231.752 104.703C234.952 105.903 271.352 85.5025 271.352 82.5692C271.352 79.6359 266.019 81.7692 250.019 90.7025Z" fill="#F5E1CD"/>
<path d="M0.151944 89.6355C0.951944 91.9022 26.8186 102.569 31.0853 102.569C37.4853 102.569 32.9519 99.1022 19.2186 93.6355C4.81861 87.7688 -1.04806 86.5688 0.151944 89.6355Z" fill="#F5E1CD"/>
<path d="M40.6855 160.436C26.0188 166.036 21.6188 168.169 20.9522 170.169C20.6855 171.236 21.4855 171.903 22.9522 171.903C26.8188 171.769 55.7522 159.369 56.4188 157.503C57.2188 154.969 52.8188 155.636 40.6855 160.436Z" fill="#F5E1CD"/>
<path d="M261.752 159.503C260.419 159.769 259.352 160.569 259.352 161.236C259.352 163.369 268.152 165.103 283.752 166.036C297.219 166.836 299.352 166.703 299.352 164.836C299.352 162.703 295.885 161.769 281.352 160.569C276.285 160.169 270.285 159.636 268.019 159.369C265.885 159.103 262.952 159.103 261.752 159.503Z" fill="#F5E1CD"/>
<path d="M235.352 207.769C235.352 210.436 264.152 234.569 267.219 234.569C268.019 234.569 268.685 234.036 268.685 233.502C268.685 231.902 258.552 222.436 248.019 214.036C239.219 206.969 235.352 205.102 235.352 207.769Z" fill="#F5E1CD"/>
<path d="M51.3521 228.836C47.0855 231.636 32.2854 244.169 31.0854 245.902C29.7521 247.636 29.7521 250.569 31.0854 250.569C33.2188 250.569 56.6855 230.436 56.6855 228.569C56.6855 226.036 55.3521 226.036 51.3521 228.836Z" fill="#F5E1CD"/>
<path d="M133.752 255.503C133.352 275.903 134.552 283.903 137.619 280.836C140.686 277.636 139.219 243.903 135.886 243.903C134.419 243.903 134.019 246.569 133.752 255.503Z" fill="#F5E1CD"/>
<path d="M206.818 250.436C206.285 251.236 209.218 258.836 213.352 267.503C220.552 282.569 223.885 287.903 226.285 287.903C228.685 287.903 227.085 283.103 219.885 268.836C212.152 253.236 208.285 247.903 206.818 250.436Z" fill="#F5E1CD"/>
</svg>
