<svg width="401" height="418" viewBox="0 0 401 418" fill="none" xmlns="http://www.w3.org/2000/svg">
<path d="M170.433 4.80014C168.566 10.5335 168.566 10.4001 176.033 75.0668C178.966 101.2 181.1 123.067 180.7 123.467C180.3 123.867 170.166 118.4 158.3 111.2C135.633 97.6001 121.366 90.8001 115.766 90.6668C109.366 90.6668 106.433 94.1335 106.433 101.467C106.433 109.2 108.833 115.733 124.033 149.333C136.566 176.933 138.566 183.2 135.766 185.867C132.166 189.333 121.366 192 65.6329 203.2C35.3663 209.333 8.29961 215.467 5.49961 216.933C-3.96706 221.467 -0.900394 229.6 12.2996 234.533C16.0329 235.867 35.3663 240.667 55.2329 245.2C110.166 257.6 143.766 268 143.766 272.667C143.766 273.733 139.1 279.467 133.366 285.6C112.7 307.6 100.033 322.667 99.0996 326.267C98.4329 329.067 98.8329 330.4 101.1 332.267C103.5 334.267 104.566 334.267 109.766 332.8C112.966 331.733 129.366 323.733 146.033 314.933C162.7 306.133 177.9 298.667 179.766 298.267C185.233 296.933 186.833 299.067 187.366 307.6C187.633 311.867 188.7 333.733 189.766 356.267C192.433 409.067 194.033 417.333 201.633 417.333C210.433 417.333 217.1 403.6 236.7 344.133C245.1 318.8 252.7 297.2 253.633 296.267C254.966 294.8 256.3 295.6 260.433 300.267C271.1 312.4 300.566 341.6 304.033 343.467C312.166 347.733 316.7 344 315.366 334.133C314.833 331.067 310.033 313.733 304.566 295.333C299.1 277.067 294.7 261.867 294.966 261.6C295.233 261.333 303.366 263.333 312.833 266C335.633 272.267 372.433 279.867 385.766 280.8C395.5 281.6 396.7 281.467 398.966 278.933C404.166 273.067 401.633 270.133 358.7 230.133C343.1 215.6 330.566 202.933 330.833 202.133C331.1 201.333 338.566 196.4 347.366 191.333C369.366 178.533 382.033 169.067 384.7 163.333C386.833 158.8 386.833 158.533 384.166 155.867C380.433 152 363.766 150.267 342.3 151.2C333.1 151.6 325.1 151.6 324.7 151.067C324.166 150.667 330.833 142.933 339.5 134.133C364.433 108.4 385.5 84.0001 390.166 75.0668C393.9 68.1335 391.633 62.6668 385.1 62.6668C382.3 62.6668 355.9 75.7335 319.233 95.0668C304.566 102.8 292.3 108.933 291.766 108.667C291.233 108.4 291.1 94.4001 291.5 77.7335C292.166 43.0668 291.1 36.9335 284.966 36.2668C280.433 35.7335 279.5 37.2001 263.766 66.6668C250.3 92.1335 244.966 101.333 243.5 101.333C242.966 101.333 240.3 97.3335 237.366 92.2668C234.566 87.3335 228.166 76.1335 223.233 67.3335C207.633 39.8668 190.166 12.1335 184.7 6.00014C180.833 1.46681 178.566 0.000140995 175.766 0.000140995C172.566 0.000140995 171.766 0.800141 170.433 4.80014ZM184.966 19.0668C193.366 31.7335 214.833 68.0001 225.5 87.6001C234.3 104 239.366 110.667 243.233 110.667C247.766 110.667 255.233 100.133 267.5 76.2668C274.433 63.0668 280.833 51.0668 281.9 49.7335C283.5 47.6001 283.766 47.7335 284.033 52.0001C284.166 54.5335 284.3 70.1335 284.433 86.6668V116.667L288.033 117.067C290.7 117.333 303.9 111.2 335.633 94.8001C359.766 82.2668 380.166 72.0001 380.966 72.0001C381.766 72.0001 382.433 72.4001 382.433 72.9335C382.433 75.4668 349.1 113.067 330.7 131.6C319.5 142.8 310.433 152.667 310.433 153.733C310.433 158.267 313.233 158.667 345.233 158.667C362.7 158.667 377.233 159.2 377.633 159.867C379.5 162.667 365.366 172.933 340.566 186.8C325.633 195.067 321.766 198.933 323.233 204.533C323.766 206.933 335.1 218.533 357.233 239.6C375.5 256.8 390.433 271.467 390.433 272.133C390.433 275.2 372.433 271.867 328.833 261.067C286.833 250.667 286.433 250.667 286.433 259.467C286.433 261.867 289.366 273.2 292.966 284.533C302.166 313.2 307.766 334.667 306.166 334.667C304.166 334.667 290.7 321.467 274.7 303.733C258.166 285.333 255.5 283.333 251.766 285.333C247.633 287.6 244.833 294.267 232.433 332.667C215.5 384.933 206.433 408 202.566 408C200.033 408 198.966 396.133 196.433 339.867C195.366 315.2 193.9 297.733 192.966 295.6C188.966 286.8 178.166 288.533 153.1 302C126.166 316.4 112.966 322.933 112.166 322.133C111.233 321.333 115.633 316.133 134.3 296.267C150.433 278.933 154.033 273.467 151.9 269.467C146.966 260.4 121.9 252 50.4329 235.333C22.1663 228.8 11.7663 225.733 11.7663 224C11.7663 222.533 12.1663 222.533 67.7663 211.333C122.433 200.4 131.366 198.267 138.7 194.533C149.633 188.933 148.833 183.067 131.366 144.267C117.766 114.4 113.766 103.6 114.966 100.667C116.166 97.3335 126.3 102 155.5 119.467C181.233 134.933 186.7 137.467 188.166 134.933C188.566 134.4 188.3 130.667 187.633 126.667C185.5 112.933 176.566 16.4001 176.966 10.9335C177.233 8.13347 178.166 9.06681 184.966 19.0668Z" fill="#F5E1CD"/>
<path d="M224.833 135.334C205.367 140.267 182.833 156.534 171.5 173.867C165.9 182.667 160.567 197.867 159.233 209.6C155.233 242.534 184.967 269.734 221.1 266.134C257.767 262.4 294.033 231.334 298.3 200C301.633 174.8 288.7 149.2 266.967 138.534C259.367 134.8 256.7 134.267 245.367 133.867C237.1 133.6 229.633 134.134 224.833 135.334ZM262.833 146.534C271.5 150.8 281.367 160.8 286.033 170.267C289.367 177.334 289.767 179.334 289.767 192C289.767 204.8 289.367 206.667 285.9 214C281.367 223.2 268.3 236.934 256.7 244.534C216.033 271.2 167.767 255.2 167.767 215.2C167.767 197.867 176.7 175.067 187.633 164.134C193.5 158.4 213.633 147.6 223.9 144.667C234.967 141.6 254.7 142.534 262.833 146.534Z" fill="#F5E1CD"/>
<path d="M242.833 179.6C240.299 180.534 240.699 186.4 243.366 187.867C248.299 190.534 252.833 184.267 248.833 180.267C247.099 178.534 245.633 178.4 242.833 179.6Z" fill="#F5E1CD"/>
<path d="M200.299 199.201C198.833 202.934 200.433 206.001 204.033 206.401C208.166 206.934 210.433 202.534 207.766 199.334C205.633 196.801 201.233 196.801 200.299 199.201Z" fill="#F5E1CD"/>
<path d="M241.9 219.601C242.7 228.534 242.433 230.401 240.3 233.067C238.166 235.734 237.233 236.001 234.3 234.934C231.1 233.601 226.166 228.534 223.1 223.334C221.9 221.334 221.5 221.334 220.166 222.934C217.766 225.734 222.833 235.201 228.433 238.667C237.633 244.401 246.566 240.267 248.433 229.467C249.233 224.267 247.233 214.001 244.833 210.934C241.9 207.334 241.1 209.734 241.9 219.601Z" fill="#F5E1CD"/>
</svg>
